<svg width="25" height="24" viewBox="0 0 25 24" fill="none" xmlns="http://www.w3.org/2000/svg">
<path fill-rule="evenodd" clip-rule="evenodd" d="M4.01788 4C4.01788 4.552 4.46789 5 5.02235 5H19.8072L17.8665 12.728L19.8152 13.213L22.0682 4.243C22.1436 3.944 22.0753 3.628 21.8854 3.385C21.6956 3.142 21.4033 3 21.0939 3H6.02683V1C6.02683 0.448 5.57682 0 5.02235 0H0V2H4.01788V4ZM8.0358 11H2.00901V13H8.0358V11ZM24.1073 15H0V17H24.1073V15ZM10.0449 7H4.01802V9H10.0449V7ZM7.30006 19.7322C8.28072 20.7085 8.28072 22.2915 7.30006 23.2678C6.3194 24.2441 4.72943 24.2441 3.74877 23.2678C2.76811 22.2915 2.76811 20.7085 3.74877 19.7322C4.72943 18.7559 6.3194 18.7559 7.30006 19.7322ZM22.3675 23.2678C23.3481 22.2915 23.3481 20.7085 22.3675 19.7322C21.3868 18.7559 19.7968 18.7559 18.8161 19.7322C17.8354 20.7085 17.8354 22.2915 18.8161 23.2678C19.7968 24.2441 21.3868 24.2441 22.3675 23.2678Z" fill="#D62C2C"/>
</svg>
