<svg width="24" height="25" viewBox="0 0 24 25" fill="none" xmlns="http://www.w3.org/2000/svg">
<path fill-rule="evenodd" clip-rule="evenodd" d="M4.86077 3.46288L23.0505 4.57827C23.6801 4.61338 24.0959 5.14834 23.9809 5.7641L22.4922 13.7332C22.3765 14.353 21.7712 14.8555 21.14 14.8555H7.49097L7.75499 15.9991H20.5672C21.1988 15.9991 21.7108 16.5111 21.7108 17.1427C21.7108 17.7743 21.1988 18.2863 20.5672 18.2863H6.84384C6.31131 18.2863 5.84926 17.9187 5.72952 17.3998L2.4216 3.06556L0.633394 2.16722C0.0682071 1.8853 -0.161423 1.19858 0.120501 0.633394C0.402425 0.0682071 1.08914 -0.161423 1.65433 0.120501L3.92348 1.25239C4.22907 1.40482 4.45054 1.68584 4.52733 2.0186L4.86077 3.46288ZM20.383 12.5677L21.466 6.77003L5.39719 5.78711L6.96273 12.5682L20.383 12.5677ZM18.2798 24.0044C17.0166 24.0044 15.9926 22.9804 15.9926 21.7172C15.9926 20.454 17.0166 19.4299 18.2798 19.4299C19.543 19.4299 20.567 20.454 20.567 21.7172C20.567 22.9804 19.543 24.0044 18.2798 24.0044ZM7.98727 24.0044C6.72407 24.0044 5.70004 22.9804 5.70004 21.7172C5.70004 20.454 6.72407 19.4299 7.98727 19.4299C9.25046 19.4299 10.2745 20.454 10.2745 21.7172C10.2745 22.9804 9.25046 24.0044 7.98727 24.0044Z" fill="#3A3232"/>
</svg>
