<svg width="49" height="49" viewBox="0 0 49 49" fill="none" xmlns="http://www.w3.org/2000/svg">
<rect width="49" height="49" rx="24.5" fill="#D62C2C"/>
<path d="M22.1982 17.125C22.4912 17.125 22.7451 17.2324 22.96 17.4473C23.1748 17.6621 23.2822 17.9258 23.2822 18.2383V32.5645C23.2822 32.9941 23.126 33.3652 22.8135 33.6777C22.501 33.9707 22.1299 34.1172 21.7002 34.1172H21.4072C20.8799 34.1172 20.46 33.9023 20.1475 33.4727L10.8604 20.0547V33.0332C10.8604 33.3262 10.7529 33.5801 10.5381 33.7949C10.3232 34.0098 10.0596 34.1172 9.74707 34.1172C9.4541 34.1172 9.2002 34.0098 8.98535 33.7949C8.77051 33.5801 8.66309 33.3262 8.66309 33.0332V18.707C8.66309 18.2773 8.80957 17.9062 9.10254 17.5938C9.41504 17.2812 9.7959 17.125 10.2451 17.125H10.5381C11.0459 17.125 11.4951 17.3691 11.8857 17.8574L21.1143 31.1875V18.2383C21.1143 17.9453 21.2217 17.6914 21.4365 17.4766C21.6514 17.2422 21.9053 17.125 22.1982 17.125ZM40.6846 32.3594C40.8604 32.5742 40.9482 32.8281 40.9482 33.1211C40.9482 33.3945 40.8506 33.6289 40.6553 33.8242C40.46 34.0195 40.1963 34.1172 39.8643 34.1172C39.5322 34.1172 39.249 33.9805 39.0146 33.707L32.833 25.7969L30.1084 28.5508V33.0332C30.1084 33.3262 30.001 33.5801 29.7861 33.7949C29.5713 34.0098 29.3076 34.1172 28.9951 34.1172C28.7021 34.1172 28.4482 34.0098 28.2334 33.7949C28.0186 33.5801 27.9111 33.3262 27.9111 33.0332V18.2383C27.9111 17.9453 28.0186 17.6914 28.2334 17.4766C28.4482 17.2422 28.7021 17.125 28.9951 17.125C29.2881 17.125 29.542 17.2324 29.7568 17.4473C29.9912 17.6621 30.1084 17.9258 30.1084 18.2383V25.8555L38.3115 17.5352C38.5068 17.2812 38.7607 17.1543 39.0732 17.1543C39.4053 17.1348 39.6689 17.2227 39.8643 17.418C40.0596 17.5938 40.1572 17.8379 40.1572 18.1504C40.1572 18.4434 40.0596 18.668 39.8643 18.8242L34.3271 24.332L40.6846 32.3594Z" fill="white"/>
</svg>
