<svg width="24" height="24" viewBox="0 0 24 24" fill="none" xmlns="http://www.w3.org/2000/svg">
<rect width="24" height="24" rx="4" fill="#3A3232"/>
<path d="M16.1451 8.85201C16.6753 8.85201 17.1051 8.4222 17.1051 7.89201C17.1051 7.36181 16.6753 6.93201 16.1451 6.93201C15.6149 6.93201 15.1851 7.36181 15.1851 7.89201C15.1851 8.4222 15.6149 8.85201 16.1451 8.85201Z" fill="white"/>
<path fill-rule="evenodd" clip-rule="evenodd" d="M8 12C8 14.206 9.794 16 12 16C14.206 16 16 14.206 16 12C16 9.794 14.206 8 12 8C9.794 8 8 9.794 8 12ZM10 12C10 10.897 10.897 10 12 10C13.103 10 14 10.897 14 12C14 13.103 13.103 14 12 14C10.897 14 10 13.103 10 12Z" fill="white"/>
<path fill-rule="evenodd" clip-rule="evenodd" d="M8 20H16C18.056 20 20 18.056 20 16V8C20 5.944 18.056 4 16 4H8C5.944 4 4 5.944 4 8V16C4 18.056 5.944 20 8 20ZM6 8C6 7.065 7.065 6 8 6H16C16.935 6 18 7.065 18 8V16C18 16.935 16.935 18 16 18H8C7.047 18 6 16.953 6 16V8Z" fill="white"/>
</svg>
