<svg width="20" height="17" viewBox="0 0 20 17" fill="none" xmlns="http://www.w3.org/2000/svg">
<path fill-rule="evenodd" clip-rule="evenodd" d="M11.8183 9.46747L10.6429 10.6428C10.2879 10.9978 9.71232 10.9978 9.3573 10.6428L8.18194 9.46747L3.10103 14.5484L16.8964 14.5456L11.8183 9.46747ZM18.1817 3.10379L13.1037 8.18182L18.1814 13.2596L18.1817 3.10379ZM6.89621 8.18182L1.81846 3.10407L1.81818 13.2598L6.89621 8.18182ZM10.0001 8.74438L16.9033 1.81525L3.0997 1.81808L10.0001 8.74438ZM1.819 0H18.181C19.1856 0 20 0.811475 20 1.81372V14.5499C20 15.5516 19.185 16.3636 18.181 16.3636H1.819C0.814396 16.3636 0 15.5522 0 14.5499V1.81372C0 0.812029 0.815042 0 1.819 0Z" fill="#D62C2C"/>
</svg>
