<svg width="16" height="20" viewBox="0 0 16 20" fill="none" xmlns="http://www.w3.org/2000/svg">
<path fill-rule="evenodd" clip-rule="evenodd" d="M16 8C16 10.9214 14.6551 13.7882 12.4593 16.3943C10.8413 18.3146 8.80219 20 8 20C7.19781 20 5.15867 18.3146 3.54069 16.3943C1.34486 13.7882 0 10.9214 0 8C0 3.58172 3.58172 0 8 0C12.4183 0 16 3.58172 16 8ZM5.06967 15.1057C5.79361 15.9649 6.5863 16.7445 7.32394 17.3542C7.62062 17.5994 7.99951 17.8744 7.99951 17.8744C7.99951 17.8744 8.42089 17.5643 8.67508 17.3542C9.41272 16.7445 10.2054 15.9649 10.9293 15.1057C12.8488 12.8276 13.9995 10.3747 13.9995 8.00001C13.9995 4.6863 11.3132 2.00001 7.99951 2.00001C4.6858 2.00001 1.99951 4.6863 1.99951 8.00001C1.99951 10.3747 3.15021 12.8276 5.06967 15.1057ZM5 8C5 6.34315 6.34315 5 8 5C9.65685 5 11 6.34315 11 8C11 9.65685 9.65685 11 8 11C6.34315 11 5 9.65685 5 8ZM7.99951 7.00001C8.5518 7.00001 8.99951 7.44772 8.99951 8.00001C8.99951 8.55229 8.5518 9.00001 7.99951 9.00001C7.44723 9.00001 6.99951 8.55229 6.99951 8.00001C6.99951 7.44772 7.44723 7.00001 7.99951 7.00001Z" fill="#D62C2C"/>
</svg>
