<svg width="20" height="21" viewBox="0 0 20 21" fill="none" xmlns="http://www.w3.org/2000/svg">
<path fill-rule="evenodd" clip-rule="evenodd" d="M8.02588 6.53805L9.0436 5.52033C9.4211 5.14283 9.42025 4.53451 9.04453 4.15879L5.30895 0.423207C4.742 -0.143745 3.83103 -0.13916 3.26633 0.425538L1.22919 2.46268C-0.0797276 3.7716 -0.394693 6.14311 0.533604 7.75169C0.533604 7.75169 1.64694 10.3513 5.67187 14.3762C9.6968 18.4011 12.2489 19.4749 12.2489 19.4749C13.8422 20.4284 16.2248 20.0832 17.5373 18.7708L19.5744 16.7336C20.1428 16.1653 20.1402 15.2544 19.5768 14.691L15.8412 10.9554C15.4644 10.5786 14.8559 10.5801 14.4796 10.9564L13.4619 11.9741C12.8991 12.5369 11.9887 12.539 11.4204 11.9707L8.0293 8.57959C7.4646 8.01489 7.46357 7.10036 8.02588 6.53805ZM2.19841 6.79106C1.77549 5.90823 1.89314 4.51692 2.58837 3.82169L4.28898 2.12108L7.007 4.8391L6.66705 5.17905C5.35309 6.49301 5.3563 8.62443 6.67047 9.9386L10.0615 13.3297C11.3789 14.6471 13.5062 14.648 14.8211 13.3331L15.161 12.9931L17.8791 15.7112L16.1785 17.4118C15.4708 18.1194 14.0405 18.2468 13.236 17.8258C13.236 17.8258 11.9935 17.1451 11.5464 16.8428C10.2222 15.9474 8.70613 14.6923 7.03105 13.0172C5.35571 11.3419 4.0927 9.81634 3.18452 8.47634C2.87725 8.02297 2.19841 6.79106 2.19841 6.79106Z" fill="#D62C2C"/>
</svg>
