<svg width="24" height="24" viewBox="0 0 24 24" fill="none" xmlns="http://www.w3.org/2000/svg">
<rect width="24" height="24" rx="4" fill="#3A3232"/>
<path fill-rule="evenodd" clip-rule="evenodd" d="M11.8282 17.0895H12.7846C12.7846 17.0895 13.0734 17.0578 13.2209 16.8988C13.3567 16.7529 13.3523 16.4787 13.3523 16.4787C13.3523 16.4787 13.3337 15.1955 13.9293 15.0065C14.5164 14.8203 15.2703 16.2468 16.0694 16.7952C16.6737 17.2103 17.1329 17.1193 17.1329 17.1193L19.2696 17.0895C19.2696 17.0895 20.3874 17.0207 19.8574 16.1418C19.8139 16.0699 19.5487 15.4917 18.2687 14.3036C16.9289 13.0601 17.1084 13.2612 18.7222 11.1101C19.7051 9.80015 20.098 9.00038 19.9753 8.65783C19.8582 8.33158 19.1354 8.41782 19.1354 8.41782L16.7295 8.4328C16.7295 8.4328 16.5512 8.40848 16.4189 8.48754C16.2897 8.56509 16.2065 8.74581 16.2065 8.74581C16.2065 8.74581 15.8257 9.75953 15.3179 10.6216C14.2466 12.4408 13.8183 12.5368 13.6432 12.4238C13.2359 12.1606 13.3376 11.3662 13.3376 10.8019C13.3376 9.03904 13.605 8.304 12.8169 8.11372C12.5554 8.05051 12.3629 8.00881 11.6942 8.00207C10.8357 7.99317 10.1092 8.00468 9.69777 8.20625C9.42408 8.34027 9.21295 8.63894 9.34154 8.6561C9.50054 8.67738 9.86067 8.75319 10.0516 9.01319C10.2981 9.34857 10.2894 10.1019 10.2894 10.1019C10.2894 10.1019 10.4311 12.1771 9.95864 12.4349C9.63434 12.6117 9.18949 12.2507 8.23441 10.6004C7.74504 9.75497 7.37556 8.82053 7.37556 8.82053C7.37556 8.82053 7.30432 8.64589 7.17725 8.55249C7.02303 8.43932 6.80755 8.40326 6.80755 8.40326L4.52141 8.41825C4.52141 8.41825 4.17821 8.42781 4.05223 8.57703C3.94015 8.70975 4.04333 8.9843 4.04333 8.9843C4.04333 8.9843 5.83315 13.1717 7.85972 15.2819C9.71797 17.2166 11.8282 17.0895 11.8282 17.0895Z" fill="white"/>
</svg>
